<mxfile host="app.diagrams.net" agent="Mozilla/5.0 (Windows NT 10.0; Win64; x64; rv:128.0) Gecko/20100101 Firefox/128.0" version="24.8.3">
  <diagram name="Page-1" id="822b0af5-4adb-64df-f703-e8dfc1f81529">
    <mxGraphModel dx="1594" dy="756" grid="1" gridSize="10" guides="1" tooltips="1" connect="1" arrows="1" fold="1" page="1" pageScale="1" pageWidth="1100" pageHeight="850" background="none" math="0" shadow="0">
      <root>
        <mxCell id="0" />
        <mxCell id="1" parent="0" />
        <mxCell id="FRXdRvKuZ9ygXSrAQfId-7" style="edgeStyle=orthogonalEdgeStyle;rounded=0;orthogonalLoop=1;jettySize=auto;html=1;" edge="1" parent="1" source="FRXdRvKuZ9ygXSrAQfId-2" target="FRXdRvKuZ9ygXSrAQfId-3">
          <mxGeometry relative="1" as="geometry" />
        </mxCell>
        <mxCell id="FRXdRvKuZ9ygXSrAQfId-2" value="互联网" style="html=1;outlineConnect=0;fillColor=#CCCCCC;strokeColor=#6881B3;gradientColor=none;gradientDirection=north;strokeWidth=2;shape=mxgraph.networks.cloud;fontColor=#ffffff;" vertex="1" parent="1">
          <mxGeometry x="70" y="100" width="90" height="50" as="geometry" />
        </mxCell>
        <mxCell id="FRXdRvKuZ9ygXSrAQfId-24" style="edgeStyle=orthogonalEdgeStyle;rounded=0;orthogonalLoop=1;jettySize=auto;html=1;" edge="1" parent="1" source="FRXdRvKuZ9ygXSrAQfId-3" target="FRXdRvKuZ9ygXSrAQfId-8">
          <mxGeometry relative="1" as="geometry" />
        </mxCell>
        <mxCell id="FRXdRvKuZ9ygXSrAQfId-3" value="光猫" style="fontColor=#0066CC;verticalAlign=top;verticalLabelPosition=bottom;labelPosition=center;align=center;html=1;outlineConnect=0;fillColor=#CCCCCC;strokeColor=#6881B3;gradientColor=none;gradientDirection=north;strokeWidth=2;shape=mxgraph.networks.modem;" vertex="1" parent="1">
          <mxGeometry x="65" y="200" width="100" height="30" as="geometry" />
        </mxCell>
        <mxCell id="FRXdRvKuZ9ygXSrAQfId-30" style="edgeStyle=orthogonalEdgeStyle;rounded=0;orthogonalLoop=1;jettySize=auto;html=1;" edge="1" parent="1" source="FRXdRvKuZ9ygXSrAQfId-8" target="FRXdRvKuZ9ygXSrAQfId-10">
          <mxGeometry relative="1" as="geometry" />
        </mxCell>
        <mxCell id="FRXdRvKuZ9ygXSrAQfId-8" value="主路由" style="fontColor=#0066CC;verticalAlign=top;verticalLabelPosition=bottom;labelPosition=center;align=center;html=1;outlineConnect=0;fillColor=#CCCCCC;strokeColor=#6881B3;gradientColor=none;gradientDirection=north;strokeWidth=2;shape=mxgraph.networks.router;" vertex="1" parent="1">
          <mxGeometry x="65" y="270" width="100" height="30" as="geometry" />
        </mxCell>
        <mxCell id="FRXdRvKuZ9ygXSrAQfId-31" style="edgeStyle=orthogonalEdgeStyle;rounded=0;orthogonalLoop=1;jettySize=auto;html=1;" edge="1" parent="1" source="FRXdRvKuZ9ygXSrAQfId-9" target="FRXdRvKuZ9ygXSrAQfId-15">
          <mxGeometry relative="1" as="geometry">
            <Array as="points">
              <mxPoint x="150" y="579" />
              <mxPoint x="90" y="579" />
            </Array>
          </mxGeometry>
        </mxCell>
        <mxCell id="FRXdRvKuZ9ygXSrAQfId-36" style="edgeStyle=orthogonalEdgeStyle;rounded=0;orthogonalLoop=1;jettySize=auto;html=1;" edge="1" parent="1" source="FRXdRvKuZ9ygXSrAQfId-9" target="FRXdRvKuZ9ygXSrAQfId-11">
          <mxGeometry relative="1" as="geometry">
            <Array as="points">
              <mxPoint x="210" y="575" />
              <mxPoint x="210" y="575" />
            </Array>
          </mxGeometry>
        </mxCell>
        <mxCell id="FRXdRvKuZ9ygXSrAQfId-37" style="edgeStyle=orthogonalEdgeStyle;rounded=0;orthogonalLoop=1;jettySize=auto;html=1;" edge="1" parent="1" source="FRXdRvKuZ9ygXSrAQfId-9" target="FRXdRvKuZ9ygXSrAQfId-13">
          <mxGeometry relative="1" as="geometry">
            <Array as="points">
              <mxPoint x="230" y="585" />
              <mxPoint x="360" y="585" />
            </Array>
          </mxGeometry>
        </mxCell>
        <mxCell id="FRXdRvKuZ9ygXSrAQfId-9" value="交换机(弱电箱)" style="fontColor=#0066CC;verticalAlign=top;verticalLabelPosition=bottom;labelPosition=center;align=center;html=1;outlineConnect=0;fillColor=#CCCCCC;strokeColor=#6881B3;gradientColor=none;gradientDirection=north;strokeWidth=2;shape=mxgraph.networks.switch;" vertex="1" parent="1">
          <mxGeometry x="140" y="520" width="100" height="30" as="geometry" />
        </mxCell>
        <mxCell id="FRXdRvKuZ9ygXSrAQfId-10" value="NAS" style="fontColor=#0066CC;verticalAlign=top;verticalLabelPosition=bottom;labelPosition=center;align=center;html=1;outlineConnect=0;fillColor=#CCCCCC;strokeColor=#6881B3;gradientColor=none;gradientDirection=north;strokeWidth=2;shape=mxgraph.networks.nas_filer;" vertex="1" parent="1">
          <mxGeometry x="65" y="410" width="100" height="35" as="geometry" />
        </mxCell>
        <mxCell id="FRXdRvKuZ9ygXSrAQfId-11" value="次卧1" style="fontColor=#0066CC;verticalAlign=top;verticalLabelPosition=bottom;labelPosition=center;align=center;html=1;outlineConnect=0;fillColor=#CCCCCC;strokeColor=#6881B3;gradientColor=none;gradientDirection=north;strokeWidth=2;shape=mxgraph.networks.laptop;" vertex="1" parent="1">
          <mxGeometry x="180" y="622.5" width="100" height="55" as="geometry" />
        </mxCell>
        <mxCell id="FRXdRvKuZ9ygXSrAQfId-13" value="次卧2" style="fontColor=#0066CC;verticalAlign=top;verticalLabelPosition=bottom;labelPosition=center;align=center;html=1;outlineConnect=0;fillColor=#CCCCCC;strokeColor=#6881B3;gradientColor=none;gradientDirection=north;strokeWidth=2;shape=mxgraph.networks.laptop;" vertex="1" parent="1">
          <mxGeometry x="310" y="622.5" width="100" height="55" as="geometry" />
        </mxCell>
        <mxCell id="FRXdRvKuZ9ygXSrAQfId-15" value="书房" style="fontColor=#0066CC;verticalAlign=top;verticalLabelPosition=bottom;labelPosition=center;align=center;html=1;outlineConnect=0;fillColor=#CCCCCC;strokeColor=#6881B3;gradientColor=none;gradientDirection=north;strokeWidth=2;shape=mxgraph.networks.pc;" vertex="1" parent="1">
          <mxGeometry x="40" y="607.5" width="100" height="70" as="geometry" />
        </mxCell>
        <mxCell id="FRXdRvKuZ9ygXSrAQfId-17" value="电视" style="fontColor=#0066CC;verticalAlign=top;verticalLabelPosition=bottom;labelPosition=center;align=center;html=1;outlineConnect=0;fillColor=#CCCCCC;strokeColor=#6881B3;gradientColor=none;gradientDirection=north;strokeWidth=2;shape=mxgraph.networks.monitor;" vertex="1" parent="1">
          <mxGeometry x="240" y="315" width="160" height="130" as="geometry" />
        </mxCell>
        <mxCell id="FRXdRvKuZ9ygXSrAQfId-20" value="从路由(主卧)" style="fontColor=#0066CC;verticalAlign=top;verticalLabelPosition=bottom;labelPosition=center;align=center;html=1;outlineConnect=0;fillColor=#CCCCCC;strokeColor=#6881B3;gradientColor=none;gradientDirection=north;strokeWidth=2;shape=mxgraph.networks.router;" vertex="1" parent="1">
          <mxGeometry x="360" y="520" width="100" height="30" as="geometry" />
        </mxCell>
        <mxCell id="FRXdRvKuZ9ygXSrAQfId-23" style="edgeStyle=orthogonalEdgeStyle;rounded=0;orthogonalLoop=1;jettySize=auto;html=1;entryX=0.5;entryY=0;entryDx=0;entryDy=0;entryPerimeter=0;" edge="1" parent="1" source="FRXdRvKuZ9ygXSrAQfId-3" target="FRXdRvKuZ9ygXSrAQfId-17">
          <mxGeometry relative="1" as="geometry" />
        </mxCell>
        <mxCell id="FRXdRvKuZ9ygXSrAQfId-25" style="edgeStyle=orthogonalEdgeStyle;rounded=0;orthogonalLoop=1;jettySize=auto;html=1;entryX=0.5;entryY=0;entryDx=0;entryDy=0;entryPerimeter=0;" edge="1" parent="1" source="FRXdRvKuZ9ygXSrAQfId-8" target="FRXdRvKuZ9ygXSrAQfId-9">
          <mxGeometry relative="1" as="geometry">
            <Array as="points">
              <mxPoint x="190" y="285" />
            </Array>
          </mxGeometry>
        </mxCell>
        <mxCell id="FRXdRvKuZ9ygXSrAQfId-26" style="edgeStyle=orthogonalEdgeStyle;rounded=0;orthogonalLoop=1;jettySize=auto;html=1;entryX=0;entryY=0.5;entryDx=0;entryDy=0;entryPerimeter=0;" edge="1" parent="1" source="FRXdRvKuZ9ygXSrAQfId-9" target="FRXdRvKuZ9ygXSrAQfId-20">
          <mxGeometry relative="1" as="geometry" />
        </mxCell>
      </root>
    </mxGraphModel>
  </diagram>
</mxfile>
